<svg width="25" height="25" viewBox="0 0 25 25" fill="none" xmlns="http://www.w3.org/2000/svg">
<path d="M21.2529 13.5994C21.3024 13.203 21.3396 12.8067 21.3396 12.3856C21.3396 11.9645 21.3024 11.5681 21.2529 11.1718L23.8662 9.12818C24.1015 8.9424 24.1635 8.60799 24.0148 8.33551L21.5377 4.05009C21.3891 3.77761 21.0547 3.67852 20.7822 3.77761L17.6982 5.01617C17.0541 4.52074 16.3605 4.11202 15.605 3.80238L15.1344 0.520195C15.0972 0.222941 14.8371 0 14.5275 0H9.57324C9.2636 0 9.0035 0.222941 8.96634 0.520195L8.49569 3.80238C7.74017 4.11202 7.04658 4.53313 6.40253 5.01617L3.31851 3.77761C3.03364 3.66614 2.71162 3.77761 2.56299 4.05009L0.0858713 8.33551C-0.0751415 8.60799 -0.000827732 8.9424 0.234499 9.12818L2.84786 11.1718C2.79832 11.5681 2.76116 11.9769 2.76116 12.3856C2.76116 12.7943 2.79832 13.203 2.84786 13.5994L0.234499 15.643C-0.000827732 15.8288 -0.0627559 16.1632 0.0858713 16.4357L2.56299 20.7211C2.71162 20.9936 3.04603 21.0927 3.31851 20.9936L6.40253 19.755C7.04658 20.2505 7.74017 20.6592 8.49569 20.9688L8.96634 24.251C9.0035 24.5483 9.2636 24.7712 9.57324 24.7712H14.5275C14.8371 24.7712 15.0972 24.5483 15.1344 24.251L15.605 20.9688C16.3605 20.6592 17.0541 20.2381 17.6982 19.755L20.7822 20.9936C21.0671 21.1051 21.3891 20.9936 21.5377 20.7211L24.0148 16.4357C24.1635 16.1632 24.1015 15.8288 23.8662 15.643L21.2529 13.5994ZM12.0504 16.7206C9.65994 16.7206 7.7154 14.776 7.7154 12.3856C7.7154 9.99518 9.65994 8.05064 12.0504 8.05064C14.4408 8.05064 16.3853 9.99518 16.3853 12.3856C16.3853 14.776 14.4408 16.7206 12.0504 16.7206Z" fill="black" fill-opacity="0.5"/>
</svg>
